
<svg width="50" height="12" viewBox="0 0 50 12" fill="none" xmlns="http://www.w3.org/2000/svg">
  <path d="M29.0105 10.6432C29.0105 10.7401 29.0364 10.793 29.0969 10.793C29.14 10.793 29.1746 10.7753 29.2177 10.7489L44.7936 0.414097C45.0699 0.229075 45.3203 0.132159 45.6916 0.132159H49.1193C49.646 0.132159 50 0.493392 50 1.03084V7.70044C50 8.5022 49.8273 8.96916 49.1193 9.40088L44.9663 11.9471C44.9145 11.9824 44.8627 12 44.8282 12C44.7764 12 44.7332 11.9648 44.7332 11.815V4.02643C44.7332 3.93833 44.7073 3.87665 44.6469 3.87665C44.6037 3.87665 44.5692 3.89427 44.526 3.92071L33.1376 11.4714C32.8182 11.6828 32.5591 11.7445 32.2656 11.7445H24.7108C24.1841 11.7445 23.8301 11.3833 23.8301 10.8458V1.24229C23.8301 1.17181 23.7955 1.11013 23.7437 1.11013C23.7006 1.11013 23.666 1.12775 23.6229 1.15418L16.1112 5.76212C16.0335 5.80617 16.0162 5.85022 16.0162 5.88546C16.0162 5.92071 16.0249 5.94714 16.0853 6L21.4471 11.4714C21.5161 11.5419 21.5679 11.6035 21.5679 11.6564C21.5679 11.7181 21.4902 11.7533 21.3953 11.7533H16.5429C16.163 11.7533 15.8695 11.6916 15.6622 11.4802L12.4072 8.15859C12.3726 8.12335 12.3467 8.10573 12.3122 8.10573C12.2863 8.10573 12.2431 8.12335 12.2086 8.14097L6.76912 11.4802C6.44103 11.6828 6.21654 11.7445 5.88845 11.7445H0.880677C0.353998 11.7445 0 11.3833 0 10.8458V4.29956C0 3.48899 0.172682 3.03084 0.880677 2.59912L5.05957 0.0352424C5.10275 0.00881071 5.13728 0 5.17182 0C5.23226 0 5.26679 0.0704847 5.26679 0.211454V8.96916C5.26679 9.05727 5.2927 9.10132 5.35313 9.10132C5.38767 9.10132 5.43084 9.07489 5.47401 9.04846L19.5907 0.387665C19.9275 0.185022 20.1347 0.123348 20.5232 0.123348H28.1212C28.6479 0.123348 29.0019 0.484581 29.0019 1.02203L29.0105 10.6432Z" fill="white"/>
</svg>
