<svg width="51" height="12" viewBox="0 0 51 12" fill="none" xmlns="http://www.w3.org/2000/svg">
  <path d="M29.5105 10.6432C29.5105 10.7401 29.5364 10.793 29.5969 10.793C29.64 10.793 29.6746 10.7753 29.7177 10.7489L45.2936 0.414097C45.5699 0.229075 45.8203 0.132159 46.1916 0.132159H49.6193C50.146 0.132159 50.5 0.493392 50.5 1.03084V7.70044C50.5 8.5022 50.3273 8.96916 49.6193 9.40088L45.4663 11.9471C45.4145 11.9824 45.3627 12 45.3282 12C45.2764 12 45.2332 11.9648 45.2332 11.815V4.02643C45.2332 3.93833 45.2073 3.87665 45.1469 3.87665C45.1037 3.87665 45.0692 3.89427 45.026 3.92071L33.6376 11.4714C33.3182 11.6828 33.0591 11.7445 32.7656 11.7445H25.2108C24.6841 11.7445 24.3301 11.3833 24.3301 10.8458V1.24229C24.3301 1.17181 24.2955 1.11013 24.2437 1.11013C24.2006 1.11013 24.166 1.12775 24.1229 1.15418L16.6112 5.76212C16.5335 5.80617 16.5162 5.85022 16.5162 5.88546C16.5162 5.92071 16.5249 5.94714 16.5853 6L21.9471 11.4714C22.0161 11.5419 22.0679 11.6035 22.0679 11.6564C22.0679 11.7181 21.9902 11.7533 21.8953 11.7533H17.0429C16.663 11.7533 16.3695 11.6916 16.1622 11.4802L12.9072 8.15859C12.8726 8.12335 12.8467 8.10573 12.8122 8.10573C12.7863 8.10573 12.7431 8.12335 12.7086 8.14097L7.26912 11.4802C6.94103 11.6828 6.71654 11.7445 6.38845 11.7445H1.38068C0.853998 11.7445 0.5 11.3833 0.5 10.8458V4.29956C0.5 3.48899 0.672682 3.03084 1.38068 2.59912L5.55957 0.0352424C5.60275 0.00881071 5.63728 0 5.67182 0C5.73226 0 5.76679 0.0704847 5.76679 0.211454V8.96916C5.76679 9.05727 5.7927 9.10132 5.85313 9.10132C5.88767 9.10132 5.93084 9.07489 5.97401 9.04846L20.0907 0.387665C20.4275 0.185022 20.6347 0.123348 21.0232 0.123348H28.6212C29.1479 0.123348 29.5019 0.484581 29.5019 1.02203L29.5105 10.6432Z" fill="#05141F"/>
</svg>
