
<svg width="313" height="247" viewBox="0 0 313 247" fill="none" xmlns="http://www.w3.org/2000/svg">
<path d="M22.4631 229.427V216.222H24.0862V222.216L30.213 216.222H32.3246L25.6568 222.668L32.5517 229.427H30.2477L24.0862 223.276V229.427H22.4631Z" fill="#05141F"/>
<path d="M37.3845 224.283H41.8529L39.6185 218.289L37.3845 224.283ZM33.8586 229.426L38.8678 216.221H40.4565L45.4834 229.426H43.7553L42.3419 225.603H36.8955L35.4822 229.426H33.8586Z" fill="#05141F"/>
<path d="M47.6104 216.221H49.2169V220.2C49.2169 222.58 50.5782 223.935 52.4978 223.935C54.4353 223.935 55.622 222.754 56.2334 221.659V216.221H57.8391V229.426H56.2334V223.432C55.4301 224.352 54.1912 225.221 52.3758 225.221C49.4436 225.221 47.6104 223.083 47.6104 220.269V216.221Z" fill="#05141F"/>
<path d="M61.677 229.427V216.222H69.5836V217.542H63.3005V221.973H68.6236V223.294H63.3005V228.106H69.6883V229.427H61.677Z" fill="#05141F"/>
<path d="M72.3223 222.649C72.3223 218.706 74.9058 215.96 78.5363 215.96C80.3339 215.96 81.8528 216.69 82.7252 217.541V219.401C81.8176 218.218 80.4564 217.263 78.5706 217.263C76.04 217.263 74.0331 219.452 74.0331 222.649V222.979C74.0331 226.176 76.04 228.383 78.5363 228.383C80.3861 228.383 81.8176 227.445 82.7252 226.246V228.122C81.835 228.956 80.2988 229.687 78.5189 229.687C74.9058 229.687 72.3223 226.923 72.3223 222.979V222.649Z" fill="#05141F"/>
<path d="M85.0791 217.542V216.222H94.8363V217.542H90.7695V229.427H89.1629V217.542H85.0791Z" fill="#05141F"/>
<path d="M105.237 225.604C105.237 224.109 103.928 223.293 102.409 223.293H99.3199V228.105H102.409C103.928 228.105 105.237 227.324 105.237 225.829V225.604ZM99.3199 217.542V221.972H102.165C103.718 221.972 104.696 221.034 104.696 219.87V219.679C104.696 218.462 103.701 217.542 102.165 217.542H99.3199ZM106.913 225.604V225.863C106.913 228.158 105.062 229.426 102.636 229.426H97.6968V216.221H102.392C104.766 216.221 106.355 217.611 106.355 219.591V219.766C106.355 221.121 105.499 222.059 104.33 222.511C105.761 222.928 106.913 224.005 106.913 225.604Z" fill="#05141F"/>
<path d="M111.222 222.962C111.222 226.176 112.95 228.383 115.638 228.383C118.344 228.383 120.054 226.176 120.054 222.962V222.615C120.054 219.418 118.344 217.264 115.638 217.264C112.95 217.264 111.222 219.418 111.222 222.615V222.962ZM109.529 222.615C109.529 218.74 111.938 215.96 115.638 215.96C119.355 215.96 121.765 218.74 121.765 222.615V222.962C121.765 226.854 119.355 229.687 115.638 229.687C111.938 229.687 109.529 226.854 109.529 222.962V222.615Z" fill="#05141F"/>
<path d="M130.698 229.427V216.222H140.979V229.427H139.373V217.542H132.322V229.427H130.698Z" fill="#05141F"/>
<path d="M145.952 222.962C145.952 226.176 147.68 228.383 150.368 228.383C153.073 228.383 154.784 226.176 154.784 222.962V222.615C154.784 219.418 153.073 217.264 150.368 217.264C147.68 217.264 145.952 219.418 145.952 222.615V222.962ZM144.259 222.615C144.259 218.74 146.667 215.96 150.368 215.96C154.086 215.96 156.494 218.74 156.494 222.615V222.962C156.494 226.854 154.086 229.687 150.368 229.687C146.667 229.687 144.259 226.854 144.259 222.962V222.615Z" fill="#05141F"/>
<path d="M167.855 228.106V217.542H163.299C163.281 222.737 162.618 225.864 161.292 228.106H167.855ZM158.638 232.206V228.106H159.668C160.873 226.09 161.675 223.015 161.675 217.611V216.222H169.478V228.106H170.84V232.206H169.338V229.426H160.139V232.206H158.638Z" fill="#05141F"/>
<path d="M172.583 217.542V216.222H182.34V217.542H178.273V229.427H176.667V217.542H172.583Z" fill="#05141F"/>
<path d="M192.741 225.604C192.741 224.109 191.432 223.293 189.913 223.293H186.823V228.105H189.913C191.432 228.105 192.741 227.324 192.741 225.829V225.604ZM186.823 217.542V221.972H189.669C191.222 221.972 192.199 221.034 192.199 219.87V219.679C192.199 218.462 191.205 217.542 189.669 217.542H186.823ZM194.416 225.604V225.863C194.416 228.158 192.566 229.426 190.14 229.426H185.201V216.221H189.895C192.269 216.221 193.858 217.611 193.858 219.591V219.766C193.858 221.121 193.002 222.059 191.833 222.511C193.264 222.928 194.416 224.005 194.416 225.604Z" fill="#05141F"/>
<path d="M197.591 229.427V216.222H205.498V217.542H199.214V221.973H204.538V223.294H199.214V228.106H205.603V229.427H197.591Z" fill="#05141F"/>
<path d="M210.541 222.649H213.525C215.358 222.649 216.441 221.676 216.441 220.217V219.957C216.441 218.515 215.358 217.524 213.525 217.524H210.541V222.649ZM208.917 229.426V216.221H213.699C216.353 216.221 218.116 217.767 218.116 219.957V220.235C218.116 222.424 216.353 223.97 213.699 223.97H210.541V229.426H208.917Z" fill="#05141F"/>
<path d="M219.947 229.427L225.916 222.668L220.174 216.222H222.128L227.417 222.233V216.222H229.023V222.233L234.311 216.222H236.266L230.524 222.668L236.494 229.427H234.364L229.023 223.242V229.427H227.417V223.242L222.093 229.427H219.947Z" fill="#05141F"/>
<path d="M247.155 228.106V217.542H242.6C242.582 222.737 241.919 225.864 240.593 228.106H247.155ZM237.939 232.206V228.106H238.969C240.174 226.09 240.976 223.015 240.976 217.611V216.222H248.779V228.106H250.14V232.206H248.639V229.426H239.44V232.206H237.939Z" fill="#05141F"/>
<path d="M252.844 229.427V216.222H260.75V217.542H254.467V221.973H259.79V223.294H254.467V228.106H260.855V229.427H252.844Z" fill="#05141F"/>
<path d="M264.17 229.427V216.222H265.793V221.973H273.194V216.222H274.799V229.427H273.194V223.294H265.793V229.427H264.17Z" fill="#05141F"/>
<path d="M279.771 222.962C279.771 226.176 281.499 228.383 284.187 228.383C286.893 228.383 288.603 226.176 288.603 222.962V222.615C288.603 219.418 286.893 217.264 284.187 217.264C281.499 217.264 279.771 219.418 279.771 222.615V222.962ZM278.078 222.615C278.078 218.74 280.487 215.96 284.187 215.96C287.905 215.96 290.314 218.74 290.314 222.615V222.962C290.314 226.854 287.905 229.687 284.187 229.687C280.487 229.687 278.078 226.854 278.078 222.962V222.615Z" fill="#05141F"/>
<path d="M27.9087 2.57614C13.9473 2.57614 2.588 13.8829 2.588 27.7807V219.22C2.588 233.117 13.9473 244.424 27.9087 244.424H285.092C299.054 244.424 310.412 233.117 310.412 219.22V27.7807C310.412 13.8829 299.054 2.57614 285.092 2.57614H27.9087ZM285.092 247H27.9087C12.5194 247 0 234.538 0 219.22V27.7807C0 12.4627 12.5194 1.52588e-05 27.9087 1.52588e-05H285.092C300.481 1.52588e-05 313 12.4627 313 27.7807V219.22C313 234.538 300.481 247 285.092 247Z" fill="#161D26"/>
<path d="M311.706 201.66H1.29443V199.084H311.706V201.66Z" fill="#161D26"/>
<path d="M35.5271 120.164C35.9138 120.342 36.509 120.46 37.0443 120.46C39.097 120.46 40.0792 119.365 40.2873 113.827L40.7633 100.797H55.4896V123.304H51.4733V104.054H44.6305L44.2439 115.042C43.9764 122.445 40.4061 123.748 37.0742 123.748C36.5684 123.748 35.9437 123.659 35.5271 123.452V120.164Z" fill="#161D26"/>
<path d="M60.3672 123.304V100.797H74.6478V104.055H64.3835V110.096H72.9819V113.353H64.3835V120.016H74.7965V123.304H60.3672Z" fill="#161D26"/>
<path d="M77.1157 104.054V100.796H94.9363V104.054H88.0641V123.303H84.0473V104.054H77.1157Z" fill="#161D26"/>
<path d="M110.018 123.304V100.797H123.406V104.055H114.034V123.304H110.018Z" fill="#161D26"/>
<path d="M129.92 113.946H136.406L133.162 105.239L129.92 113.946ZM122.512 123.304L131.14 100.797H135.573L144.23 123.304H139.887L137.596 117.173H128.73L126.439 123.304H122.512Z" fill="#161D26"/>
<path d="M151.13 111.251H155.593C157.855 111.251 159.431 109.948 159.431 107.845V107.401C159.431 105.298 157.855 103.995 155.593 103.995H151.13V111.251ZM147.115 123.304V100.797H156.188C160.383 100.797 163.685 103.166 163.685 107.401V107.875C163.685 112.11 160.383 114.479 156.188 114.479H151.13V123.304H147.115Z" fill="#161D26"/>
<path d="M170.794 113.946H177.28L174.037 105.239L170.794 113.946ZM163.386 123.304L172.014 100.797H176.447L185.104 123.304H180.761L178.47 117.173H169.604L167.314 123.304H163.386Z" fill="#161D26"/>
<path d="M187.989 123.304V100.797H192.005V110.037H203.459V100.797H207.476V123.304H203.459V113.294H192.005V123.304H187.989Z" fill="#161D26"/>
<path d="M210.657 104.054V100.796H228.478V104.054H221.605V123.303H217.589V104.054H210.657Z" fill="#161D26"/>
<path d="M231.659 123.304V100.797H235.646V117.618L245.761 100.797H250.522V123.304H246.505V106.572L236.42 123.304H231.659Z" fill="#161D26"/>
<path d="M255.399 123.304V100.797H259.385V117.618L269.501 100.797H274.261V123.304H270.244V106.572L260.159 123.304H255.399Z" fill="#161D26"/>
<path d="M238.793 18.9333L107.806 18.7556C106.73 18.7539 105.795 19.49 105.548 20.5325L92.358 76.3018C91.8408 80.8491 92.0109 93.3424 109.504 93.3424C112.788 93.3424 115.016 93.4349 116.439 93.5918H228.15C211.835 74.3676 169.466 75.3747 157.59 76.0661C156.037 76.1566 154.841 74.7224 155.21 73.2173L158.664 59.1466C158.917 58.1137 159.848 57.3869 160.917 57.3885L230.036 57.4851C231.094 57.4863 232.019 56.7736 232.282 55.7528L241.033 21.8119C241.409 20.3547 240.304 18.9353 238.793 18.9333Z" fill="#161D26"/>
<path d="M159.4 130.303C155.403 135.133 148.059 138.847 134.71 138.847H77.5647L67.7437 180.369C67.401 181.816 68.5045 183.202 69.9979 183.202H138.384C185.692 183.202 221.644 165.027 231.8 130.303H159.4Z" fill="#161D26"/>
</svg>
